<svg xmlns="http://www.w3.org/2000/svg"  viewBox="0 0 24 24" width="24px" height="24px"><path d="M 2 3 L 2 15 L 5 15 L 5 3 L 2 3 z M 8.875 3 C 7.839 3 7 3.839 7 4.875 L 7 14.410156 C 7 14.907156 7.1978281 15.384328 7.5488281 15.736328 L 13.5625 21.75 C 13.5625 21.75 15.4375 21.302875 15.4375 19.546875 C 15.4385 18.866875 14 15 14 15 L 20 15 C 21.036 15 22 14.036 22 13 L 22 12.058594 C 22 11.648594 21.914047 11.243141 21.748047 10.869141 L 18.744141 4.1132812 C 18.443141 3.4352813 17.77225 3 17.03125 3 L 8.875 3 z"/></svg>