<?xml version="1.0"?><svg xmlns="http://www.w3.org/2000/svg"  viewBox="0 0 24 24" width="24px" height="24px">    <path d="M 1 2 L 1 14 L 7 14 C 7.0020678 14.527157 7.2118359 15.031153 7.5839844 15.404297 L 14.167969 22 L 15.033203 21.148438 C 15.522203 20.666438 15.731938 19.966875 15.585938 19.296875 L 14.648438 15 L 21 15 C 22.105 15 23 14.105 23 13 L 23 11.001953 C 23 10.730953 22.944891 10.461891 22.837891 10.212891 L 19.830078 3.2109375 C 19.515078 2.4759375 18.791188 2 17.992188 2 L 9 2 C 8.6339464 2 8.2950606 2.1058114 8 2.2773438 C 7.7049394 2.1058114 7.3660536 2 7 2 L 1 2 z M 3 4 L 7 4 L 7 12 L 3 12 L 3 4 z M 9 4 L 17.992188 4 L 21 11.001953 L 21 13 L 14.648438 13 L 12.166016 13 L 12.693359 15.425781 L 13.326172 18.326172 L 9 13.992188 L 9 12 L 9 4 z"/></svg>