<?xml version="1.0"?><svg xmlns="http://www.w3.org/2000/svg"  viewBox="0 0 24 24" width="24px" height="24px">    <path d="M 14.167969 1 L 7.5839844 7.5957031 C 7.2099844 7.9707031 7 8.4778125 7 9.0078125 L 7 19 C 7 20.105 7.895 21 9 21 L 17.992188 21 C 18.791188 21 19.514078 20.524062 19.830078 19.789062 L 22.837891 12.787109 C 22.944891 12.538109 23 12.269047 23 11.998047 L 23 10 C 23 8.895 22.105 8 21 8 L 14.648438 8 L 15.585938 3.703125 C 15.731938 3.033125 15.522203 2.3335625 15.033203 1.8515625 L 14.167969 1 z M 1 9 L 1 21 L 5 21 L 5 9 L 1 9 z"/></svg>