<svg xmlns="http://www.w3.org/2000/svg"  viewBox="0 0 64 64" width="64px" height="64px" baseProfile="basic"><circle cx="13.5" cy="13.5" r="5.5" fill="#008aa9"/><circle cx="36.5" cy="13.5" r="5.5" fill="#008aa9"/><path fill="#68e5fd" d="M25,9C17,9,9,18.074,9,27c0,7,5.605,6.987,8.011,9.393C19.398,38.78,22,40,25.019,40	c2.981,0,5.602-1.22,7.989-3.607C35.415,33.987,41.019,34,41.019,27C41.019,18.074,33,9,25,9z"/><path fill="#fff" d="M22.671,14.439c2.257-0.817,3.562-3.09,3.249-5.375C25.613,9.038,25.307,9,25,9 c-7.35,0-14.682,7.66-15.828,15.827c0.454,0.13,0.914,0.199,1.37,0.199c1.921,0,3.752-1.113,4.577-2.982 C16.674,18.522,19.638,15.538,22.671,14.439z" opacity=".3"/><path d="M33.008,36.393c1.168-1.168,3.088-1.771,4.757-2.878c-0.121-0.209-0.238-0.419-0.393-0.614 c-1.711-2.166-4.856-2.533-7.022-0.821c-0.309,0.244-0.6,0.501-0.878,0.778C27.573,34.756,26.096,35,25.02,35 c-2.34,0-4.289,1.614-4.834,3.784c1.5,0.798,3.096,1.216,4.834,1.216C28,40,30.621,38.78,33.008,36.393z" opacity=".15"/><path fill="#008aa9" d="M21.8,27.8c-2.43,2.43-5.877,2.922-7.7,1.1c-1.822-1.822-1.33-5.27,1.1-7.7s5.877-2.922,7.7-1.1	C24.722,21.923,24.23,25.37,21.8,27.8z"/><circle cx="19.5" cy="23.5" r="1.5" fill="#a0effe"/><path fill="#008aa9" d="M27.1,20.1c1.822-1.822,5.27-1.33,7.7,1.1c2.43,2.43,2.922,5.877,1.1,7.7	c-1.822,1.822-5.27,1.33-7.7-1.1S25.278,21.923,27.1,20.1z"/><circle cx="30.5" cy="23.5" r="1.5" fill="#a0effe"/><path fill="#008aa9" d="M28,31.93c0,1.062-1.997,3.07-3,3.07c-1.007,0-3-2.021-3-3.07c0-1.15,1.5-1.93,3-1.93	C26.471,30,28,30.767,28,31.93z"/><ellipse cx="32" cy="61" opacity=".3" rx="20" ry="3"/><path fill="#98c900" d="M52,56h-5c-0.552,0-1-0.448-1-1V8c0-0.552,0.448-1,1-1h5c0.552,0,1,0.448,1,1v47	C53,55.552,52.552,56,52,56z"/><path fill="#548500" d="M44.339,50.809c-1.769,1.686-5.435-0.272-8.092-2.805c-2.88-2.745-3.231-6.767-3.244-6.937	c-0.023-0.289,0.087-0.572,0.301-0.776c0.214-0.204,0.511-0.31,0.814-0.287c0.178,0.012,4.398,0.347,7.278,3.092	C44.054,45.628,46.108,49.122,44.339,50.809z"/><path fill="#548500" d="M52.5,51h-10c-0.828,0-1.5-0.672-1.5-1.5l0,0c0-0.828,0.672-1.5,1.5-1.5h10	c0.828,0,1.5,0.672,1.5,1.5l0,0C54,50.328,53.328,51,52.5,51z"/><path fill="#98c900" d="M37.5,46c-3.915,0-7.021,2.629-7.151,2.742C30.127,48.932,30,49.208,30,49.5s0.127,0.568,0.349,0.758	C30.479,50.371,33.585,53,37.5,53c3.612,0,7.5-1.095,7.5-3.5S41.112,46,37.5,46z"/><path fill="#548500" d="M10.753,46.394c1.189-3.794,4.69-6.122,4.839-6.218c0.252-0.165,0.56-0.217,0.844-0.141	c0.284,0.076,0.515,0.271,0.632,0.535c0.07,0.155,1.686,3.849,0.497,7.643c-1.097,3.501-3.343,6.984-5.683,6.359	C9.542,53.947,9.656,49.894,10.753,46.394z"/><path fill="#98c900" d="M15.591,47.226c3.441-1.857,7.443-1.063,7.611-1.028c0.287,0.059,0.532,0.237,0.673,0.488	s0.163,0.55,0.06,0.819c-0.06,0.158-1.519,3.898-4.96,5.755c-3.175,1.713-7.122,2.613-8.284,0.54	C9.529,51.728,12.416,48.94,15.591,47.226z"/><path fill="#548500" d="M52.5,42h-6c-0.828,0-1.5-0.672-1.5-1.5l0,0c0-0.828,0.672-1.5,1.5-1.5h6c0.828,0,1.5,0.672,1.5,1.5	l0,0C54,41.328,53.328,42,52.5,42z"/><path fill="#548500" d="M52.5,33h-6c-0.828,0-1.5-0.672-1.5-1.5v0c0-0.828,0.672-1.5,1.5-1.5h6c0.828,0,1.5,0.672,1.5,1.5v0	C54,32.328,53.328,33,52.5,33z"/><path fill="#548500" d="M52.5,24h-6c-0.828,0-1.5-0.672-1.5-1.5v0c0-0.828,0.672-1.5,1.5-1.5h6c0.828,0,1.5,0.672,1.5,1.5v0	C54,23.328,53.328,24,52.5,24z"/><path fill="#548500" d="M52.5,15h-6c-0.828,0-1.5-0.672-1.5-1.5v0c0-0.828,0.672-1.5,1.5-1.5h6c0.828,0,1.5,0.672,1.5,1.5v0	C54,14.328,53.328,15,52.5,15z"/><path fill="none" stroke="#fff" stroke-linecap="round" stroke-miterlimit="10" stroke-width="3" d="M19.052,14.698	c1.091-0.805,2.256-1.424,3.443-1.797"/></svg>