<svg xmlns="http://www.w3.org/2000/svg"  viewBox="0 0 64 64" width="64px" height="64px" baseProfile="basic"><path fill="#37d0ee" d="M30,24c0,1.84,0.5,3.56,1.36,5.03c0.25,0.44,0.54,0.85,0.85,1.24c1.53,1.89,3.73,3.22,6.24,3.61 C38.95,33.96,39.47,34,40,34c3.03,0,5.74-1.35,7.58-3.48l0.01-0.01c0.34-0.39,0.64-0.81,0.91-1.26c0.61-0.97,1.05-2.06,1.3-3.22 C49.93,25.38,50,24.7,50,24c0-5.52-4.48-10-10-10c-1.75,0-3.4,0.45-4.84,1.25c-1.48,0.82-2.73,1.99-3.63,3.43 c-0.32,0.51-0.6,1.06-0.82,1.64C30.25,21.46,30,22.7,30,24z"/><path fill="#37d0ee" d="M14,26.5c0,0.51,0.04,1.01,0.12,1.5c0.03,0.2,0.07,0.4,0.11,0.6c0.04,0.14,0.07,0.29,0.12,0.43 c0.05,0.22,0.12,0.44,0.2,0.65c0.37,1.06,0.93,2.03,1.63,2.88c0.17,0.2,0.34,0.39,0.52,0.57C18.43,34.9,20.83,36,23.5,36 c0.1,0,0.2,0,0.29-0.01c0.1,0,0.19-0.01,0.29-0.01c3.66-0.22,6.76-2.52,8.13-5.71c0.09-0.2,0.17-0.39,0.24-0.59 c0.08-0.21,0.15-0.43,0.21-0.65c0.22-0.8,0.34-1.65,0.34-2.53c0-2.36-0.86-4.52-2.29-6.18C28.97,18.29,26.39,17,23.5,17 c-2.33,0-4.47,0.85-6.13,2.24c-1.28,1.09-2.27,2.51-2.83,4.12C14.19,24.34,14,25.4,14,26.5z"/><path fill="#37d0ee" d="M38,37c0,5.91,4.65,10.73,10.5,10.99C48.67,48,48.83,48,49,48c2.52,0,4.84-0.85,6.69-2.27 c1.33-1.02,2.43-2.35,3.18-3.86C59.59,40.4,60,38.75,60,37c0-5.81-4.5-10.56-10.2-10.97C49.53,26.01,49.27,26,49,26 c-1.46,0-2.85,0.29-4.13,0.81h-0.01c-1.29,0.52-2.45,1.27-3.44,2.22c-1.38,1.31-2.42,2.98-2.97,4.85C38.16,34.87,38,35.91,38,37z"/><path fill="#37d0ee" d="M4,38c0,4.07,2.43,7.57,5.91,9.12c1.24,0.56,2.61,0.87,4.05,0.88H14c3.7,0,6.93-2.01,8.66-5 c0.85-1.47,1.34-3.18,1.34-5c0-0.69-0.07-1.36-0.21-2.01c-0.06-0.34-0.15-0.67-0.25-0.99c-0.76-2.42-2.42-4.44-4.58-5.68 c-0.04-0.02-0.08-0.05-0.12-0.07c-0.14-0.08-0.28-0.15-0.43-0.22c-1.27-0.63-2.7-1-4.21-1.03H14C8.48,28,4,32.48,4,38z"/><rect width="34.5" height="18.97" x="14" y="29.03" fill="#37d0ee"/><path d="M60,37c0,1.75-0.41,3.4-1.13,4.87c-0.75,1.51-1.85,2.84-3.18,3.86C53.84,47.15,51.52,48,49,48	c-0.17,0-0.33,0-0.5-0.01V48h-0.44c-0.36-2.26,0.9-4.54,3.12-5.41c0.52-0.2,1.02-0.48,1.47-0.83c0.73-0.56,1.33-1.29,1.74-2.11	C54.79,38.83,55,37.93,55,37c0-3.13-2.44-5.76-5.56-5.98c-1.43-0.11-2.75-0.82-3.62-1.96s-1.2-2.6-0.92-4.01	C44.97,24.71,45,24.36,45,24c0-0.51-0.08-1.01-0.22-1.49c-0.7-2.21,0.23-4.56,2.12-5.74C48.81,18.59,50,21.16,50,24	c0,0.7-0.07,1.38-0.2,2.03C55.5,26.44,60,31.19,60,37z" opacity=".15"/><path fill="#fff" d="M28.32,18.32C27.74,20.44,25.8,22,23.5,22c-1.35,0-2.33,0.58-2.92,1.07	c-0.59,0.51-1.06,1.18-1.32,1.93C19.08,25.5,19,25.99,19,26.5c0,0.24,0.02,0.47,0.05,0.69c0.24,1.45-0.17,2.93-1.12,4.05	C16.98,32.36,15.59,33,14.12,33H14c-2.76,0-5,2.24-5,5c0,2.33-1.59,4.29-3.75,4.84C4.45,41.41,4,39.76,4,38c0-5.52,4.48-10,10-10	h0.12C14.04,27.51,14,27.01,14,26.5c0-1.1,0.19-2.16,0.54-3.14c0.56-1.61,1.55-3.03,2.83-4.12c1.66-1.39,3.8-2.24,6.13-2.24	C25.26,17,26.91,17.48,28.32,18.32z" opacity=".3"/><path fill="#fff" d="M18.499,25c-0.226,0-0.455-0.051-0.67-0.159c-0.741-0.371-1.041-1.271-0.671-2.013	C18.402,20.342,21.354,19,23.5,19c0.829,0,1.5,0.671,1.5,1.5S24.329,22,23.5,22c-1.052,0-2.959,0.773-3.658,2.171	C19.579,24.696,19.049,25,18.499,25z"/><ellipse cx="32" cy="61" opacity=".3" rx="22" ry="3"/><path fill="#fff" d="M24.129,39c-1.256,0-2.329-0.247-3.221-0.743c-0.893-0.495-1.577-1.192-2.057-2.089	c-0.479-0.898-0.718-1.958-0.718-3.18c0-1.211,0.239-2.266,0.718-3.164c0.479-0.897,1.164-1.594,2.057-2.089	c0.892-0.496,1.965-0.743,3.221-0.743c0.55,0,1.109,0.071,1.676,0.214c0.567,0.143,1.06,0.336,1.479,0.578	c0.341,0.198,0.55,0.446,0.628,0.743c0.077,0.298,0.052,0.578-0.075,0.843c-0.126,0.264-0.322,0.452-0.586,0.561	c-0.264,0.11-0.562,0.072-0.892-0.116c-0.331-0.198-0.677-0.341-1.041-0.429c-0.363-0.088-0.732-0.132-1.106-0.132	c-1.112,0-1.952,0.323-2.519,0.967c-0.567,0.645-0.851,1.567-0.851,2.767c0,1.2,0.284,2.125,0.851,2.774	c0.567,0.65,1.407,0.975,2.519,0.975c0.352,0,0.712-0.044,1.081-0.132c0.369-0.088,0.725-0.226,1.066-0.413	c0.352-0.187,0.661-0.228,0.925-0.124c0.264,0.105,0.46,0.281,0.586,0.529c0.127,0.247,0.157,0.518,0.091,0.809	c-0.067,0.292-0.254,0.531-0.562,0.718c-0.419,0.276-0.922,0.49-1.512,0.644C25.299,38.923,24.713,39,24.129,39z"/><path fill="#fff" d="M34.783,39c-1.145,0-2.15-0.25-3.014-0.751c-0.864-0.501-1.536-1.2-2.015-2.098	c-0.479-0.897-0.718-1.952-0.718-3.163c0-1.211,0.239-2.266,0.718-3.164c0.479-0.897,1.148-1.594,2.007-2.089	c0.859-0.496,1.866-0.743,3.023-0.743c1.157,0,2.167,0.247,3.031,0.743c0.864,0.495,1.536,1.192,2.015,2.089	c0.479,0.898,0.718,1.946,0.718,3.147c0,1.212-0.239,2.268-0.718,3.172c-0.479,0.903-1.151,1.605-2.015,2.106	C36.95,38.75,35.94,39,34.783,39z M34.783,36.82c0.969,0,1.726-0.339,2.271-1.016c0.545-0.677,0.818-1.616,0.818-2.816	c0-1.211-0.27-2.15-0.809-2.817c-0.54-0.666-1.3-0.999-2.28-0.999c-0.958,0-1.709,0.333-2.254,0.999	c-0.545,0.667-0.818,1.606-0.818,2.817c0,1.2,0.273,2.139,0.818,2.816C33.074,36.481,33.825,36.82,34.783,36.82z"/><path fill="#fff" d="M42.101,44c-0.318,0-0.549-0.073-0.691-0.22c-0.143-0.147-0.214-0.363-0.214-0.648	c0-0.184,0.046-0.356,0.138-0.515s0.218-0.323,0.377-0.491l2.363-2.489c0.352-0.377,0.605-0.712,0.761-1.006	c0.155-0.293,0.232-0.587,0.232-0.88c0-0.754-0.465-1.131-1.395-1.131c-0.243,0-0.492,0.034-0.748,0.1	c-0.256,0.068-0.522,0.185-0.798,0.352c-0.227,0.134-0.434,0.163-0.622,0.088c-0.189-0.076-0.327-0.206-0.415-0.39	s-0.109-0.379-0.063-0.585c0.046-0.205,0.183-0.375,0.409-0.509c0.369-0.227,0.771-0.396,1.207-0.509	C43.077,35.056,43.509,35,43.937,35c0.989,0,1.745,0.22,2.269,0.66c0.523,0.44,0.786,1.066,0.786,1.879	c0,0.537-0.124,1.05-0.371,1.54c-0.248,0.491-0.652,1.02-1.213,1.59l-1.709,1.735h2.916c0.545,0,0.817,0.264,0.817,0.792	c0,0.537-0.273,0.805-0.817,0.805h-4.514V44z"/></svg>