<svg xmlns="http://www.w3.org/2000/svg"  viewBox="0 0 64 64" width="64px" height="64px" baseProfile="basic"><rect width="5" height="21" x="42" y="30" fill="#bd6300"/><path fill="none" stroke="#548500" stroke-miterlimit="10" stroke-width="3" d="M55.5,29.5V37c0,1.933-1.567,3.5-3.5,3.5h0	c-1.933,0-3.5-1.567-3.5-3.5v-9.5"/><path fill="none" stroke="#548500" stroke-miterlimit="10" stroke-width="3" d="M34.5,30v2.5c0,2.761-2.239,5-5,5h0	c-2.761,0-5-2.239-5-5V24"/><line x1="11.5" x2="11.5" y1="24.5" y2="37.5" fill="none" stroke="#548500" stroke-linecap="round" stroke-miterlimit="10" stroke-width="3"/><path fill="#548500" d="M54,24c-0.446,0-0.867,0.09-1.268,0.224C51.975,21.778,49.696,20,47,20	c-2.408,0-4.478,1.421-5.434,3.468C41.042,22.592,40.094,22,39,22c-1.512,0-2.751,1.123-2.957,2.578C35.443,24.219,34.75,24,34,24	c-2.209,0-4,1.791-4,4c0,2.209,1.791,4,4,4h20c2.209,0,4-1.791,4-4C58,25.791,56.209,24,54,24z"/><rect width="5" height="38" x="16" y="13" fill="#bd6300"/><ellipse cx="32.015" cy="61" opacity=".3" rx="19" ry="3"/><path fill="#98c900" d="M53,45c-1.518,0-2.822,0.855-3.5,2.101C48.822,45.855,47.518,45,46,45s-2.822,0.855-3.5,2.101 C41.822,45.855,40.518,45,39,45s-2.822,0.855-3.5,2.101C34.822,45.855,33.518,45,32,45s-2.822,0.855-3.5,2.101 C27.822,45.855,26.518,45,25,45s-2.822,0.855-3.5,2.101C20.822,45.855,19.518,45,18,45s-2.822,0.855-3.5,2.101 C13.822,45.855,12.518,45,11,45c-2.209,0-4,1.791-4,4v4c0,1.657,1.343,3,3,3h44c1.657,0,3-1.343,3-3v-4C57,46.791,55.209,45,53,45z"/><path d="M57,53v-4c0-1.112-0.455-2.117-1.188-2.842C53.627,46.693,52,48.65,52,51H41c-2.762,0-5,2.239-5,5 h18C55.657,56,57,54.657,57,53z" opacity=".15"/><path fill="#98c900" d="M29,15.5c0-2.877-2.21-5.234-5.024-5.476C23.734,7.21,21.377,5,18.5,5s-5.234,2.21-5.476,5.024	C10.21,10.266,8,12.623,8,15.5c0,1.33,0.472,2.549,1.257,3.5C8.472,19.951,8,21.17,8,22.5c0,2.939,2.307,5.333,5.209,5.485	C13.857,30.3,15.978,32,18.5,32s4.643-1.7,5.291-4.015C26.693,27.833,29,25.439,29,22.5c0-1.33-0.472-2.549-1.257-3.5	C28.528,18.049,29,16.83,29,15.5z"/><path fill="none" stroke="#fff" stroke-linecap="round" stroke-linejoin="round" stroke-miterlimit="10" stroke-width="3" d="M16.511,10.324C16.599,9.301,17.473,8.5,18.5,8.5"/><path fill="#fff" d="M22.62,6.893C21.613,5.742,20.15,5,18.5,5c-2.877,0-5.234,2.21-5.476,5.024	C10.21,10.266,8,12.623,8,15.5c0,0.913,0.236,1.766,0.629,2.524c1.81-0.017,3.548-1.016,4.42-2.743	c0.062-0.121,0.2-0.258,0.403-0.275c2.423-0.208,4.345-2.13,4.553-4.553c0.021-0.236,0.212-0.431,0.446-0.451	C20.381,9.829,21.937,8.572,22.62,6.893z" opacity=".3"/></svg>