<svg xmlns="http://www.w3.org/2000/svg"  viewBox="0 0 64 64" width="64px" height="64px" baseProfile="basic"><path fill="#37d0ee" d="M14,37c0-7.711,10.829-23.914,15.688-30.798c1.128-1.598,3.496-1.598,4.624,0	C39.171,13.086,50,29.289,50,37c0,9.941-8.059,18-18,18S14,46.941,14,37z"/><ellipse cx="32" cy="61" opacity=".3" rx="15.5" ry="3"/><path d="M43.109,19.778c-2.365,1.313-3.27,4.272-2.008,6.682C44.62,33.182,45,36.07,45,37	c0,7.168-5.832,13-13,13c-2.522,0-4.586,1.873-4.929,4.3C28.639,54.746,30.289,55,32,55c9.941,0,18-8.059,18-18	C50,32.813,46.806,26.122,43.109,19.778z" opacity=".15"/><path fill="#fff" d="M29.452,6.539C24.489,13.597,14,29.41,14,37c0,1.711,0.254,3.361,0.7,4.929	C17.127,41.586,19,39.522,19,37c0-2.885,3.095-10.59,11.78-23.562C32.305,11.16,31.706,8.087,29.452,6.539z" opacity=".3"/><path fill="none" stroke="#fff" stroke-linecap="round" stroke-linejoin="round" stroke-miterlimit="10" stroke-width="3" d="M21.39,26.109c1.253-2.418,2.785-5.095,4.564-7.967"/></svg>