<svg xmlns="http://www.w3.org/2000/svg"  viewBox="0 0 48 48" width="48px" height="48px"><path fill="#FFD54F" d="M19.755 12.85l-3.716-.963-1.858-.481-.929-.241-.571-.146c-.213-.071-.392-.151-.572-.242-.707-.358-1.322-.88-1.76-1.522C9.909 8.613 9.677 7.877 9.617 7.172 9.544 6.453 9.676 5.794 9.75 5.174l.125-.952.008-.06.002-.015.001-.007.001-.004c.101-.003-.227 0 .227.001l-.004.03-.016.119-.031.237L10 5 9.938 4.524 9.906 4.287 9.891 4.168l-.004-.03c.453-.001.126-.004.227-.001l.001.004.001.007.002.015.008.06.125.952c.089.644.138 1.266.347 1.793.382 1.089 1.259 1.762 2.225 1.941.116.021.24.039.336.039.008 0 .026.001.022-.002l-.002-.003.008.001c-.106-.017-.025-.005-.047-.009h.029l.12-.001.24-.002.959-.008 1.92-.014 3.838-.029L19.755 12.85zM27.755 8.881l3.838.029 1.92.014.959.008.24.002.12.001h.029c-.021.004.06-.008-.047.009l.008-.001L34.82 8.945c-.004.003.015.002.022.002.096 0 .22-.018.336-.039.966-.18 1.843-.853 2.225-1.941.209-.527.258-1.149.347-1.793l.125-.952.008-.06.002-.015.001-.007.001-.004c.101-.003-.227 0 .227.001l-.004.03-.016.119-.031.237L38 5l-.063-.476-.031-.237-.016-.119-.004-.03c.453-.001.126-.004.227-.001l.001.004.001.007.002.015.008.06.125.952c.074.62.206 1.279.133 1.998-.06.705-.292 1.441-.731 2.082-.438.643-1.053 1.164-1.76 1.522-.181.091-.359.171-.572.242l-.571.146-.929.241-1.858.481-3.716.963L27.755 8.881z"/><path fill="#5D4037" d="M34,18c0,0-0.084-1.834,0.834-1.834C35.75,16.166,35.75,18,38.5,18s5.5-3.669,5.5-4.584c0-0.916-3.666-1.835-5.5-1.835s-3.666,1.835-4.584,1.835C33,13.416,29,10,29,10H19c0,0-4,3.416-4.916,3.416c-0.918,0-2.75-1.835-4.584-1.835S4,12.5,4,13.416C4,14.331,6.75,18,9.5,18s2.75-1.834,3.666-1.834C14.084,16.166,14,18,14,18H34z"/><path fill="#795548" d="M32,13H16c0,0-2,2-2,4c0,5,4,20,5,21c0.354,0.354,2,0.5,4,0.375c2,0.125,5.646-0.021,6-0.375c1-1,5-17,5-21C34,15,32,13,32,13z"/><path fill="#CFD8DC" d="M27,7h-6c-2.209,0-3,2-4,4l-1,2c0,0,5,4,5,14c0,3-1.84,9.107-2,10h10c-0.16-0.893-2.268-7-2.268-10C26.732,17,32,13,32,13l-1-2C30,9,29.209,7,27,7z"/><path fill="#78909C" d="M29,42.5c0,0.828-0.671,1.5-1.497,1.5h-7.006C19.671,44,19,43.328,19,42.5l0,0c0-0.828,0.671-1.5,1.497-1.5h7.006C28.329,41,29,41.672,29,42.5L29,42.5z"/><path fill="#B0BEC5" d="M30,41c0,0.553-0.447,1-1,1H19c-0.553,0-1-0.447-1-1l1-4c0.141-0.625,0.594-2,2-2h6c1.359,0,1.813,1.344,2,2L30,41z"/><path fill="#455A64" d="M26 39c0-.553 2-2 2-2s0 1.447 0 2-.447 1-1 1S26 39.553 26 39zM22 39c0-.553-2-2-2-2s0 1.447 0 2 .447 1 1 1S22 39.553 22 39z"/><g><path fill="#FFF" d="M31.99 20.275c-.104-.294-.162-.617-.162-.956 0-.872.383-1.633.955-2.069C31.952 17.571 31 18.31 31 20c0 0 .464.1 1.006.281C32.001 20.279 31.995 20.277 31.99 20.275zM15.963 20.275c.104-.294.162-.617.162-.956 0-.872-.383-1.633-.955-2.069.831.321 1.783 1.06 1.783 2.75 0 0-.464.1-1.006.281C15.952 20.279 15.958 20.277 15.963 20.275z"/></g><g><path fill="#263238" d="M34 17c0 0-.572 0-1.217.25-.572.437-.955 1.197-.955 2.069 0 .339.058.662.162.956.517.171 1.109.417 1.447.725C33.792 20.709 35.438 18.812 34 17zM13.953 17c0 0 .572 0 1.217.25.572.437.955 1.197.955 2.069 0 .339-.058.662-.162.956-.517.171-1.109.417-1.447.725C14.161 20.709 12.516 18.812 13.953 17z"/></g></svg>