<svg xmlns="http://www.w3.org/2000/svg"  viewBox="0 0 48 48" width="48px" height="48px"><path fill="#00BCD4" d="M27,16c-9,0-16,7-16,7l-3,2.003l3,2.148C15.026,30.021,20.018,34,27,34c7,0,17-7,17-10S34,16,27,16z"/><path fill="#4DD0E1" d="M31.572,16.572C30.563,18.82,30,21.375,30,24c0,3.217,0.922,6.321,2.4,8.935C37.547,31.156,44,26.833,44,24S37,17.734,31.572,16.572z"/><path fill="#FFF" d="M35 20A2 2 0 1 0 35 24A2 2 0 1 0 35 20Z"/><path fill="#0277BD" d="M35 21A1 1 0 1 0 35 23A1 1 0 1 0 35 21Z"/><path fill="#006064" d="M27 16c1.436 0 2.997.213 4.572.572C31.48 16.081 30.805 12.767 29 11c-2.438.125-11.451 3.45-14 6 .584.876.983 1.564 1.276 2.124C19.091 17.508 22.824 16 27 16zM4 17c1 1 2 5.674 2 8 0 2.313-1 7-2 8 3-1 6.2-4.268 6.969-5.871.01.008.021.016.031.022l-2-2.148L11 23C11 23 9 19 4 17zM29.209 36.962c-4.121.157-4.86-.171-6.365-.464.944-1.821 6.453-6.938 7.46-6.418l-.089.471C31.221 31.072 30.152 35.14 29.209 36.962z"/><path fill="#0097A7" d="M30,24c0-2.625,0.563-5.18,1.572-7.428c-0.732-0.189-1.965-0.357-1.965-0.357C28.552,18.7,28,21.313,28,24c0,3.306,0.814,6.61,2.39,9.523c0.646-0.179,1.38-0.332,2.011-0.589C30.922,30.321,30,27.217,30,24z"/></svg>