<?xml version="1.0" encoding="UTF-8" standalone="no"?><!DOCTYPE svg PUBLIC "-//W3C//DTD SVG 1.1//EN" "http://www.w3.org/Graphics/SVG/1.1/DTD/svg11.dtd"><svg width="100%" height="100%" viewBox="0 0 267 267" version="1.1" xmlns="http://www.w3.org/2000/svg" xmlns:xlink="http://www.w3.org/1999/xlink" xml:space="preserve" xmlns:serif="http://www.serif.com/" style="fill-rule:evenodd;clip-rule:evenodd;stroke-linejoin:round;stroke-miterlimit:2;"><path d="M100,125l20.621,0l4.154,66.454c0.008,0.142 0.013,0.283 0.013,0.425c-0,4.488 -3.638,8.121 -8.121,8.121l-12.713,-0c-4.487,-0 -8.121,-3.633 -8.121,-8.121c0,-0.141 0.004,-0.283 0.013,-0.425l4.154,-66.454Z" style="fill:#333;fill-rule:nonzero;"/><path d="M175,137.5l-20.833,0l-0,54.683c-0,4.317 3.5,7.817 7.816,7.817l13.538,0c4.312,0 7.812,-3.5 7.812,-7.817c0,-0.345 -0.021,-0.691 -0.066,-1.033l-8.267,-53.65Z" style="fill:#333;fill-rule:nonzero;"/><path d="M158.333,62.5c-2.3,0 -4.166,1.867 -4.166,4.167l-0,70.833l20.833,0c0,0 8.333,-13.083 8.333,-37.5c0,-20.712 -10.67,-37.5 -25,-37.5Zm-27.083,0c-3.437,0 -6.25,2.813 -6.25,6.25l0,35.417c0,2.3 -1.867,4.166 -4.167,4.166c-2.3,0 -4.166,-1.866 -4.166,-4.166l-0,-35.417c-0,-3.437 -2.813,-6.25 -6.25,-6.25c-3.438,0 -6.25,2.813 -6.25,6.25l-0,35.417c-0,2.3 -1.867,4.166 -4.167,4.166c-2.3,0 -4.167,-1.866 -4.167,-4.166l0,-35.417c0,-3.437 -2.812,-6.25 -6.25,-6.25c-3.437,0 -6.25,2.813 -6.25,6.25l0,39.583c0,9.205 7.463,16.667 16.667,16.667l20.833,0c9.204,0 16.667,-7.462 16.667,-16.667l0,-39.583c0,-3.437 -2.812,-6.25 -6.25,-6.25Z" style="fill:#fff;fill-rule:nonzero;"/></svg>