<svg xmlns="http://www.w3.org/2000/svg"  viewBox="0 0 48 48" width="48px" height="48px"><path fill="#f48fb1" d="M47,25c-7.4,9.8-13.5,8-23,8C9.5,33,8,28,8,20C8,7.4,24.1,8,25,8c17,0,16,12,20,13"/><path fill="#f48fb1" d="M8 18c0 9 2 12 2 12l-2 2v8h4c0-2 0-5 0-5s7-1 8-5V18H8zM34 27l-2 10v1h-4l-1-9L34 27zM8 16H11V18H8z"/><path fill="#f48fb1" d="M8.5,18l-0.1,0H8.1c-0.2,0-0.3,0-0.4-0.1c-0.3-0.1-0.5-0.2-0.7-0.3c-0.4-0.2-0.8-0.5-1.1-0.8 c-0.6-0.6-1.1-1.3-1.4-2.2c-0.1-0.4-0.3-0.9-0.2-1.4c0-0.5,0.2-1,0.5-1.4c0.3-0.4,0.6-0.8,1.2-0.9c0.6-0.1,1.2,0.1,1.5,0.5 C7.8,11.8,8,12.3,8,12.8c0,0.5-0.1,0.9-0.3,1.3s-0.5,0.7-0.8,1c-0.3,0.3-0.7,0.4-1.1,0.5c-0.8,0.1-1.6,0-2.3-0.3 c-0.7-0.3-1.3-0.9-1.5-1.6c0.3,0.7,0.9,1.2,1.6,1.4c0.7,0.2,1.4,0.3,2.1,0.1c0.7-0.2,1.1-0.7,1.3-1.3c0.3-0.6,0.2-1.2-0.2-1.5 c-0.5-0.3-0.7-0.1-1,0.3c-0.2,0.5-0.2,1,0.1,1.5c0.3,0.5,0.7,1.1,1.2,1.4c0.5,0.4,1,0.6,1.3,0.4L8.5,18z"/><path d="M40,21c0,0.6-0.4,1-1,1s-1-0.4-1-1s0.4-1,1-1S40,20.4,40,21z"/><path fill="#ec407a" d="M47,24c0-1.7-1.1-3-2.5-3S42,22.3,42,24s1.1,3,2.5,3S47,25.7,47,24z"/><path fill="#880e4f" d="M44 24c0-.6-.2-1-.5-1S43 23.4 43 24s.2 1 .5 1S44 24.6 44 24zM46 24c0-.6-.2-1-.5-1S45 23.4 45 24s.2 1 .5 1S46 24.6 46 24z"/><path fill="#f06292" d="M41.4 16.4C42.9 15.6 45 13.6 45 9c-2.4 1.2-5.4 1.3-7.5 2.7C39.3 13.1 40.5 14.9 41.4 16.4zM18.1 32.6c-1.6 1.2-3.8 1.9-5.1 2.2V40h4c0-2 0-5 0-5s3.2-.5 5.6-2C20.9 32.9 19.4 32.8 18.1 32.6zM32.8 33.1L32 37v1h3v-1l.9-4.3C34.9 32.9 33.8 33 32.8 33.1z"/><path fill="#f06292" d="M33.5,15.3c0,0,5-1,5-8c-4,2-10,1-10,8C28.5,15.3,29.6,14.6,33.5,15.3z"/><path fill="#5d4037" d="M31 38l4-1 1 3h-5V38zM13 38l4-1 1 3h-5V38z"/><path fill="#795548" d="M8 38l4-1 1 3H8V38zM28 38l4-1 1 3h-5V38z"/></svg>