<svg xmlns="http://www.w3.org/2000/svg"  viewBox="0 0 48 48" width="48px" height="48px"><path fill="#dd2c00" d="M26.1 32.1l1 7.9M27.1 41c-.5 0-.9-.4-1-.9l-1-7.9c-.1-.5.3-1 .9-1.1.5-.1 1 .3 1.1.9l1 7.9c.1.5-.3 1-.9 1.1C27.1 41 27.1 41 27.1 41z"/><path fill="#dd2c00" d="M25,40h2c0,0,3,0,5,1"/><path fill="#dd2c00" d="M32,42c-0.2,0-0.3,0-0.4-0.1C29.8,41,27,41,27,41h-2c-0.6,0-1-0.4-1-1s0.4-1,1-1h2 c0.1,0,3.3,0,5.4,1.1c0.5,0.2,0.7,0.8,0.4,1.3C32.7,41.8,32.4,42,32,42z"/><path fill="#ff3d00" d="M25.1,41.9c-0.5,0-0.9-0.4-1-0.9l-1-7.9c-0.1-0.5,0.3-1,0.9-1.1c0.5-0.1,1,0.3,1.1,0.9l1,7.9 c0.1,0.5-0.3,1-0.9,1.1C25.1,41.9,25.1,41.9,25.1,41.9z"/><path fill="#dd2c00" d="M23,41h2c0,0,3,0,5,1"/><path fill="#ff3d00" d="M30,43c-0.2,0-0.3,0-0.4-0.1C27.8,42,25,42,25,42h-2c-0.6,0-1-0.4-1-1s0.4-1,1-1h2 c0.1,0,3.3,0,5.4,1.1c0.5,0.2,0.7,0.8,0.4,1.3C30.7,42.8,30.4,43,30,43z"/><path fill="#cfd8dc" d="M37,16.3c-0.8-1.2,0.5-1.2,1.5-3.3l-3.5-6C29.8,7,28,14.9,27,17c-4.1,0-11,4-11,4 c-2.1,0-4.4-6-5.7-6.8c0,0-2.6,4.2-3.5,10.5c0.7,0.5,1.6,1,2.6,1.4C12.9,34.3,21,37,25.6,37c5.2,0,7.4-3,7.4-3S44.2,30.7,37,16.3z"/><path fill="#cfd8dc" d="M11 15.5c0 .8-.7 1.5-1.5 1.5S8 16.3 8 15.5 8.7 14 9.5 14 11 14.7 11 15.5zM9 20.5C9 21.3 8.4 22 7.5 22S6 21.3 6 20.5 6.7 19 7.5 19 9 19.7 9 20.5zM9 23.5C9 24.3 8.3 25 7.5 25S6 24.3 6 23.5 6.7 22 7.5 22 9 22.7 9 23.5z"/><path fill="#cfd8dc" d="M9.5,17.7c0,0.8-0.7,1.5-1.5,1.5s-1.5-0.7-1.5-1.5c0-0.8,0.7-1.5,1.5-1.5S9.5,16.8,9.5,17.7z"/><path fill="#b0bec5" d="M29,12.3c-0.9,1.9-1.6,3.9-2,4.7c-4,0-11.1,4-11.1,4c2,2,5.1,2,5.1,2s-1.6,2-5.1,3c2,1,5,1,5,1 s-1,2-4,3c2,1,5.5,0.9,7.6,0c8-3.3,7.5-11,7.5-11C31.8,16.3,30.4,13,29,12.3z"/><path fill="#ff3d00" d="M34.1,7.5c0-0.8,1-3.5,1.5-3.5s1.5,2.7,1.5,3.5S36.4,9,35.6,9S34.1,8.3,34.1,7.5z"/><path fill="#ff3d00" d="M35.2,6.5c0.4-0.7,2.5-2.7,2.9-2.4c0.4,0.2,0.1,3.1-0.2,3.8c-0.4,0.7-1.3,1-2,0.7 C35.1,8.1,34.9,7.2,35.2,6.5z"/><path fill="#ff3d00" d="M33.8,8.8c-0.4-0.7-1-3.5-0.6-3.8c0.4-0.3,2.7,1.5,3.1,2.2s0.2,1.6-0.5,2.1 C35.2,9.7,34.3,9.5,33.8,8.8z"/><path fill="#ff3d00" d="M37.2,6.1c0.8-0.3,3.6-0.3,3.8,0.2s-2,2.3-2.8,2.6c-0.8,0.3-1.6-0.1-1.9-0.9 C36.1,7.3,36.5,6.4,37.2,6.1z"/><path fill="#ff3d00" d="M38.8 8c.8.1 3.3 1.5 3.2 2-.1.5-2.9 1.1-3.7 1-.8-.1-1.4-.9-1.3-1.7C37.2 8.5 38 7.9 38.8 8zM39.1 14.5c0 1.4-1.1 2.5-2.5 2.5-1.3 0-2.3-.9-2.5-2.2 0 0 2.6 0 3-1.8 0 0 .9-.6.9-.6C38.6 12.9 39.1 13.6 39.1 14.5z"/><path fill="#607d8b" d="M39.1,11c0,2.2-1.8,4-4,4c-2.2,0-4-1.8-4-4s1.8-4,4-4C37.3,7,39.1,8.8,39.1,11z"/><path fill="#607d8b" d="M35.1,7c-5.1,0-7.1,7-8,10l3-2l1.5,2.3l2.6-2.5L35.1,7z"/><path d="M37.1,11c0,0.6-0.4,1-1,1c-0.6,0-1-0.4-1-1s0.4-1,1-1C36.6,10,37.1,10.4,37.1,11z"/><path fill="#ffc107" d="M39.1,11l-2,2l2,1c0,0,2-1,4,0C42.1,11,39.1,11,39.1,11z"/></svg>