<svg xmlns="http://www.w3.org/2000/svg"  viewBox="0 0 48 48" width="48px" height="48px"><path fill="#90CAF9" d="M43,25c0-6.5-4-5-4-19c0,0-8,0-10,0c0,14-4,12.5-4,19v15.5c0,0.828,0.672,1.5,1.5,1.5h15c0.828,0,1.5-0.672,1.5-1.5V25z"/><path fill="#9C27B0" d="M40,5.5C40,6.328,39.328,7,38.5,7h-9C28.672,7,28,6.328,28,5.5v-1C28,3.672,28.672,3,29.5,3h9C39.328,3,40,3.672,40,4.5V5.5z"/><path fill="#FAFAFA" d="M41,38.5c0,0.276-0.224,0.5-0.5,0.5h-13c-0.276,0-0.5-0.224-0.5-0.5V25c0-2.164,0.489-3.146,1.229-4.634c0.668-1.341,1.421-2.866,1.975-5.366h7.594c0.554,2.5,1.307,4.025,1.975,5.366C40.511,21.854,41,22.836,41,25V38.5z"/><path fill="#F44336" d="M20.401,21.253c0,0-11.775-2.338-13.274,7.206c-1.499,9.546,7.399,12.532,9.97,13.104c2.57,0.572,14.117,2.144,16.539-8.198c2.009-8.571-5.739-13.735-12.377-11.921L20.401,21.253z"/><path fill="#C62828" d="M27.281,21.595c-0.557,0.48-1.117,0.616-1.78,0.616c-0.563,0-1.201-0.088-1.976-0.12c3.27,0.574,2.842,2.503,5.475,3.202c-0.803,0.516-1.58,0.734-2.326,0.734c-2.305,0-4.291-2.089-5.686-3.906c1.35,2.628,1.838,4.82,0.903,7.879c-3.767-2.3-2.447-6.393-2.276-7.564c-0.811,2.214-2.365,3.805-4.753,3.805c-0.847,0-1.8-0.2-2.862-0.645c3.024-0.615,2.537-3.881,6.251-3.88c0.19,0,0.393,0.009,0.606,0.026c-0.547-0.391-1.956-0.326-3.259-0.709c-2.735,0.303-6.026,1.365-7.645,4.717l3.275,1.691c1.268,0.529,2.491,0.799,3.633,0.799c0.99,0,1.914-0.2,2.752-0.583c0.443,1.451,1.384,2.919,3.235,4.05l2.201,1.344l0.754-2.466c0.333-1.09,0.504-2.093,0.552-3.024c0.718,0.289,1.494,0.467,2.318,0.467c1.176,0,2.322-0.354,3.408-1.053l2.199-1.756C31.07,23.461,29.223,22.276,27.281,21.595z"/><path fill="#4CAF50" d="M21.891,30c0.936-3.059,0.447-5.251-0.903-7.879c1.845,2.404,4.727,5.285,8.012,3.172c-2.633-0.699-2.205-2.628-5.475-3.202c2.452,0.103,3.534,0.765,5.211-2.584c-2.641,1.39-4.131-1.357-7.399,1.587c-0.579,0.359-1.187-0.553-1.652-0.059c-2.476-4.117-5.523-0.651-6.725-3.804c0,4.848,4.772,3.706,5.897,4.511c-4.38-0.369-3.678,3.207-6.857,3.854c4.054,1.695,6.517-0.161,7.615-3.16C19.444,23.607,18.125,27.7,21.891,30z"/><path fill="#4CAF50" d="M19.322,21.762c-0.019,0.141,0.282,0.672,1.257,0.672c1.166,0,0.718-0.578,0.718-0.578s-0.107-3.338,2.335-5.545c-0.62-0.511-1.273-0.237-1.273-0.237S19.751,18.752,19.322,21.762z"/></svg>