<svg xmlns="http://www.w3.org/2000/svg"  viewBox="0 0 50 50" width="50px" height="50px"><path d="M 31 6 C 22.488281 6 13.4375 12.15625 13.4375 12.15625 C 13.207031 12.308594 13.046875 12.546875 13 12.820313 C 12.953125 13.09375 13.019531 13.371094 13.1875 13.59375 L 15.59375 16.8125 C 13.535156 17.925781 11.773438 19.058594 10.40625 20 C 9.195313 19.9375 7.960938 18.964844 6.53125 17.75 C 5.050781 16.492188 3.339844 15 1 15 C 0.96875 15 0.9375 15 0.90625 15 C 0.390625 15.046875 -0.00390625 15.480469 0 16 C 0 20.773438 1.605469 24.328125 1.90625 24.96875 C 1.519531 25.625 0 28.375 0 33 C 0 33.550781 0.449219 34 1 34 C 3.804688 34 5.628906 32.515625 6.9375 31.21875 C 7.59375 30.570313 8.15625 29.957031 8.65625 29.5625 C 9.15625 29.167969 9.542969 29 10 29 C 10.03125 29 10.0625 29 10.09375 29 C 11.796875 30.300781 14.171875 32.003906 17 33.5625 L 13.28125 37.28125 C 13.035156 37.519531 12.925781 37.867188 12.996094 38.203125 C 13.066406 38.539063 13.304688 38.816406 13.625 38.9375 L 18.625 40.9375 C 18.933594 41.066406 19.285156 41.03125 19.5625 40.84375 L 25.3125 37 C 27.480469 37.601563 29.730469 38 32 38 C 34.972656 38 37.824219 37.078125 40.34375 35.71875 C 40.375 35.699219 40.40625 35.679688 40.4375 35.65625 C 40.476563 35.632813 40.523438 35.617188 40.5625 35.59375 C 40.585938 35.574219 40.605469 35.554688 40.625 35.53125 C 42.023438 34.75 43.324219 33.859375 44.46875 32.90625 C 46.105469 31.546875 47.441406 30.101563 48.40625 28.75 C 49.371094 27.398438 50 26.210938 50 25 C 50 23.789063 49.371094 22.601563 48.40625 21.25 C 47.441406 19.898438 46.105469 18.453125 44.46875 17.09375 C 43.398438 16.203125 42.195313 15.371094 40.90625 14.625 C 40.894531 14.613281 40.886719 14.605469 40.875 14.59375 C 40.863281 14.585938 40.855469 14.570313 40.84375 14.5625 C 40.691406 14.382813 40.480469 14.257813 40.25 14.21875 C 38.796875 13.441406 37.226563 12.828125 35.59375 12.4375 L 31.84375 6.46875 C 31.660156 6.179688 31.34375 6 31 6 Z M 30.5 8.09375 L 33 12.03125 C 32.664063 12.007813 32.339844 12 32 12 C 26.777344 12 21.636719 13.796875 17.40625 15.875 L 15.5 13.34375 C 16.804688 12.523438 23.746094 8.316406 30.5 8.09375 Z M 32 14 C 32.859375 14 33.710938 14.109375 34.5625 14.28125 C 34.734375 14.378906 34.929688 14.421875 35.125 14.40625 C 36.066406 14.636719 37.011719 14.953125 37.90625 15.34375 C 34.9375 17.527344 33 21.039063 33 25 C 33 28.960938 34.9375 32.472656 37.90625 34.65625 C 36.023438 35.476563 34.007813 36 32 36 C 22.757813 36 12.992188 28.824219 9.78125 26.1875 C 9.296875 25.78125 9 25.199219 9 24.5625 C 9 23.882813 9.304688 23.246094 9.84375 22.84375 C 13.167969 20.378906 22.820313 14 32 14 Z M 39.96875 16.40625 C 41.125 17.074219 42.214844 17.816406 43.1875 18.625 C 44.699219 19.882813 45.9375 21.222656 46.78125 22.40625 C 47.625 23.589844 48 24.675781 48 25 C 48 25.324219 47.625 26.410156 46.78125 27.59375 C 45.9375 28.777344 44.699219 30.117188 43.1875 31.375 C 42.214844 32.183594 41.125 32.925781 39.96875 33.59375 C 37.011719 31.859375 35 28.683594 35 25 C 35 21.316406 37.011719 18.140625 39.96875 16.40625 Z M 2.125 17.34375 C 3.15625 17.699219 4.171875 18.335938 5.25 19.25 C 6.183594 20.042969 7.175781 20.953125 8.34375 21.5 C 7.492188 22.285156 7 23.398438 7 24.5625 C 7 25.671875 7.433594 26.726563 8.21875 27.5 C 7.933594 27.652344 7.648438 27.8125 7.40625 28 C 6.710938 28.542969 6.140625 29.179688 5.53125 29.78125 C 4.574219 30.726563 3.515625 31.410156 2.125 31.71875 C 2.429688 27.878906 3.84375 25.5625 3.84375 25.5625 C 4.042969 25.265625 4.066406 24.882813 3.90625 24.5625 C 3.90625 24.5625 2.4375 21.375 2.125 17.34375 Z M 41 23 C 39.894531 23 39 23.894531 39 25 C 39 26.105469 39.894531 27 41 27 C 42.105469 27 43 26.105469 43 25 C 43 23.894531 42.105469 23 41 23 Z M 18.875 34.53125 C 20.128906 35.152344 21.445313 35.71875 22.8125 36.21875 L 18.875 38.875 L 15.8125 37.625 L 18.71875 34.71875 C 18.777344 34.664063 18.832031 34.601563 18.875 34.53125 Z"/></svg>