<svg xmlns="http://www.w3.org/2000/svg"  viewBox="0 0 50 50" width="50px" height="50px"><path d="M 38.660156 7.585938 C 38.425781 7.578125 38.179688 7.59375 37.921875 7.621094 C 36.839844 7.746094 35.578125 8.164063 34.15625 8.953125 C 32.097656 10.097656 29.710938 12.03125 27.15625 15.027344 L 25.089844 12.960938 C 22.453125 10.324219 18.988281 9.007813 15.523438 9.007813 C 12.058594 9.007813 8.597656 10.324219 5.960938 12.960938 C 0.6875 18.234375 0.6875 26.816406 5.960938 32.089844 L 8.914063 35.039063 C 11.890625 38.015625 15.921875 39.296875 19.816406 38.910156 C 20.234375 39.914063 20.765625 40.691406 21.730469 40.964844 L 21.765625 40.972656 L 21.804688 40.980469 C 22.832031 41.1875 23.714844 40.820313 24.394531 40.5 C 24.816406 40.300781 24.917969 40.210938 25.125 40.078125 C 25.753906 40.300781 28.421875 41.214844 32.121094 41.253906 C 36.277344 41.300781 41.453125 40.050781 44.828125 35.039063 C 47.300781 31.367188 47.976563 27.941406 48 25.007813 C 48.066406 17.207031 42.335938 12.527344 41.0625 11.574219 C 41.109375 11.289063 41.144531 11.144531 41.183594 10.679688 C 41.21875 10.289063 41.238281 9.886719 41.207031 9.492188 C 41.191406 9.296875 41.167969 9.101563 41.089844 8.875 C 41.019531 8.667969 40.84375 8.382813 40.503906 8.171875 C 39.992188 7.785156 39.367188 7.605469 38.660156 7.585938 Z M 38.578125 9.585938 C 38.945313 9.597656 39.128906 9.6875 39.214844 9.734375 C 39.222656 9.933594 39.21875 10.210938 39.191406 10.507813 C 39.132813 11.167969 39.015625 11.820313 39.015625 11.820313 L 38.902344 12.457031 L 39.433594 12.824219 C 39.433594 12.824219 46.0625 17.425781 46 24.992188 C 45.976563 27.644531 45.417969 30.582031 43.171875 33.921875 C 40.230469 38.285156 35.902344 39.296875 32.140625 39.253906 C 28.378906 39.214844 25.359375 38.066406 25.359375 38.066406 L 24.855469 37.875 L 24.417969 38.1875 C 24.417969 38.1875 24.046875 38.449219 23.542969 38.6875 C 23.054688 38.917969 22.492188 39.035156 22.25 39.003906 C 22.308594 39.011719 21.824219 38.664063 21.488281 37.722656 C 21.421875 37.539063 21.363281 37.320313 21.304688 37.097656 C 21.273438 36.972656 21.242188 36.847656 21.214844 36.714844 C 21.171875 36.523438 21.136719 36.324219 21.101563 36.113281 C 21.078125 35.964844 21.058594 35.808594 21.042969 35.648438 C 21.027344 35.523438 21.015625 35.386719 21 35.253906 C 20.890625 33.964844 20.941406 32.40625 21.257813 30.640625 C 21.273438 30.5625 21.289063 30.480469 21.300781 30.402344 C 21.429688 29.734375 21.597656 29.039063 21.804688 28.320313 C 21.832031 28.230469 21.855469 28.144531 21.878906 28.054688 C 21.941406 27.855469 22.015625 27.648438 22.082031 27.441406 C 22.167969 27.191406 22.253906 26.9375 22.347656 26.675781 C 22.359375 26.644531 22.371094 26.609375 22.386719 26.578125 C 22.460938 26.375 22.539063 26.171875 22.621094 25.96875 C 22.761719 25.621094 22.914063 25.269531 23.074219 24.914063 C 23.164063 24.707031 23.253906 24.503906 23.355469 24.296875 C 23.554688 23.878906 23.777344 23.457031 24.007813 23.03125 C 24.117188 22.832031 24.21875 22.632813 24.335938 22.433594 C 24.574219 22.015625 24.835938 21.59375 25.105469 21.171875 C 25.339844 20.796875 25.5625 20.425781 25.824219 20.046875 C 26.207031 19.488281 26.589844 18.96875 26.96875 18.464844 C 27.3125 18.007813 27.660156 17.566406 28 17.140625 L 28.515625 16.507813 C 31.011719 13.550781 33.289063 11.722656 35.125 10.703125 C 36.367188 10.015625 37.410156 9.691406 38.152344 9.609375 C 38.316406 9.589844 38.457031 9.582031 38.578125 9.585938 Z M 15.523438 10.996094 C 18.46875 10.996094 21.417969 12.121094 23.671875 14.375 L 25.886719 16.589844 C 25.324219 17.316406 24.753906 18.078125 24.175781 18.910156 C 24.132813 18.980469 24.089844 19.046875 24.046875 19.113281 C 23.59375 19.117188 23.226563 19.195313 22.96875 19.207031 C 22.585938 19.226563 22.472656 19.246094 22.128906 18.902344 C 21.914063 18.683594 21.898438 18.601563 21.878906 18.472656 C 21.859375 18.34375 21.878906 18.128906 21.925781 17.796875 C 22.023438 17.125 22.027344 15.863281 21.03125 14.863281 C 20.203125 14.039063 19.21875 13.753906 18.464844 13.785156 C 17.710938 13.820313 17.1875 14 17 14 C 17.058594 14 16.527344 13.726563 15.796875 13.363281 C 15.433594 13.179688 14.96875 13 14.40625 13.027344 C 13.84375 13.050781 13.253906 13.332031 12.792969 13.792969 C 12.046875 14.539063 11.898438 15.625 12.125 16.433594 C 12.351563 17.242188 12.796875 17.894531 13.183594 18.503906 C 13.570313 19.117188 13.894531 19.679688 13.988281 20.046875 C 14.082031 20.410156 14.109375 20.476563 13.792969 20.792969 C 13.476563 21.109375 13.417969 21.082031 13.058594 20.984375 C 12.695313 20.886719 12.132813 20.5625 11.527344 20.171875 C 10.917969 19.78125 10.261719 19.332031 9.445313 19.105469 C 8.632813 18.878906 7.542969 19.042969 6.792969 19.792969 C 6.316406 20.269531 6.023438 20.867188 5.992188 21.445313 C 5.957031 22.023438 6.144531 22.503906 6.335938 22.875 C 6.527344 23.25 6.738281 23.542969 6.867188 23.757813 C 6.957031 23.914063 6.984375 24.019531 6.992188 24.03125 C 6.984375 24.210938 6.8125 24.703125 6.773438 25.4375 C 6.734375 26.191406 7.027344 27.179688 7.871094 28.023438 C 8.867188 29.019531 10.132813 29.015625 10.800781 28.921875 C 11.136719 28.875 11.351563 28.851563 11.480469 28.871094 C 11.605469 28.890625 11.691406 28.90625 11.90625 29.125 C 12.34375 29.5625 12.25 29.6875 12.175781 30.328125 C 12.140625 30.648438 12.078125 31.058594 12.148438 31.558594 C 12.21875 32.054688 12.46875 32.617188 12.917969 33.066406 C 13.621094 33.773438 14.519531 34.011719 15.25 34.050781 C 15.984375 34.09375 16.617188 34 17 34 C 17.386719 34 17.679688 34.160156 18.121094 34.425781 C 18.34375 34.5625 18.621094 34.75 18.960938 34.882813 C 19 35.617188 19.09375 36.28125 19.214844 36.898438 C 16.023438 37.105469 12.769531 36.070313 10.328125 33.625 L 7.375 30.671875 C 2.867188 26.164063 2.867188 18.882813 7.375 14.375 C 9.628906 12.121094 12.578125 10.996094 15.523438 10.996094 Z M 35.976563 13.996094 C 35.820313 14 35.664063 14.042969 35.527344 14.121094 C 33.523438 15.195313 29.335938 18.4375 27.082031 23.597656 C 26.929688 23.929688 26.964844 24.316406 27.179688 24.613281 C 27.390625 24.90625 27.746094 25.0625 28.109375 25.019531 C 28.472656 24.976563 28.78125 24.738281 28.917969 24.402344 C 30.914063 19.8125 34.976563 16.683594 36.472656 15.878906 C 36.886719 15.664063 37.097656 15.191406 36.976563 14.738281 C 36.859375 14.289063 36.445313 13.976563 35.976563 13.996094 Z M 14.5 15.023438 C 14.554688 15.019531 14.691406 15.042969 14.90625 15.152344 C 15.339844 15.367188 15.898438 16 17 16 C 17.734375 16 18.207031 15.800781 18.550781 15.785156 C 18.894531 15.769531 19.113281 15.777344 19.613281 16.28125 C 20.167969 16.828125 20.035156 16.898438 19.949219 17.515625 C 19.902344 17.824219 19.824219 18.242188 19.902344 18.761719 C 19.976563 19.277344 20.246094 19.847656 20.71875 20.316406 C 21.351563 20.949219 22.125 21.140625 22.75 21.167969 C 22.03125 22.398438 21.433594 23.605469 20.941406 24.769531 C 20.894531 24.882813 20.847656 24.996094 20.800781 25.109375 C 20.570313 25.675781 20.355469 26.234375 20.175781 26.78125 C 20.136719 26.90625 20.105469 27.019531 20.066406 27.140625 C 19.949219 27.507813 19.84375 27.871094 19.75 28.226563 C 19.667969 28.53125 19.59375 28.828125 19.527344 29.125 C 19.515625 29.160156 19.507813 29.195313 19.5 29.234375 C 19.226563 30.445313 19.0625 31.585938 18.992188 32.652344 C 18.53125 32.371094 17.890625 32 17 32 C 16.378906 32 15.824219 32.082031 15.371094 32.058594 C 14.914063 32.03125 14.625 31.949219 14.332031 31.65625 C 14.160156 31.484375 14.148438 31.421875 14.128906 31.277344 C 14.109375 31.132813 14.128906 30.890625 14.167969 30.550781 C 14.242188 29.875 14.261719 28.648438 13.324219 27.707031 C 12.851563 27.238281 12.28125 26.96875 11.765625 26.890625 C 11.25 26.816406 10.832031 26.898438 10.519531 26.941406 C 9.902344 27.027344 9.835938 27.160156 9.285156 26.609375 C 8.753906 26.078125 8.753906 25.863281 8.773438 25.535156 C 8.789063 25.210938 9 24.75 9 24 C 9 23.429688 8.769531 23.050781 8.585938 22.738281 C 8.402344 22.425781 8.222656 22.167969 8.113281 21.957031 C 8.003906 21.75 7.984375 21.625 7.984375 21.5625 C 7.988281 21.5 7.984375 21.429688 8.207031 21.207031 C 8.507813 20.90625 8.554688 20.933594 8.914063 21.03125 C 9.273438 21.132813 9.835938 21.464844 10.449219 21.855469 C 11.058594 22.246094 11.71875 22.699219 12.542969 22.917969 C 13.363281 23.136719 14.453125 22.960938 15.207031 22.207031 C 15.960938 21.453125 16.136719 20.367188 15.921875 19.542969 C 15.710938 18.714844 15.265625 18.050781 14.875 17.4375 C 14.484375 16.820313 14.152344 16.253906 14.050781 15.890625 C 13.949219 15.53125 13.917969 15.496094 14.207031 15.207031 C 14.402344 15.011719 14.449219 15.027344 14.5 15.023438 Z M 39.96875 17 C 39.46875 17.007813 39.054688 17.386719 38.996094 17.878906 C 38.9375 18.375 39.25 18.839844 39.734375 18.96875 C 39.757813 18.984375 39.773438 18.992188 39.820313 19.03125 C 39.964844 19.144531 40.179688 19.34375 40.394531 19.578125 C 40.828125 20.042969 41.289063 20.679688 41.453125 21.066406 C 41.589844 21.40625 41.898438 21.648438 42.261719 21.695313 C 42.625 21.742188 42.984375 21.585938 43.195313 21.289063 C 43.410156 20.992188 43.445313 20.601563 43.289063 20.269531 C 42.953125 19.5 42.402344 18.796875 41.859375 18.214844 C 41.589844 17.925781 41.324219 17.671875 41.066406 17.46875 C 40.941406 17.367188 40.820313 17.277344 40.671875 17.191406 C 40.527344 17.109375 40.394531 16.988281 39.96875 17 Z M 35.988281 19.988281 C 35.582031 19.992188 35.21875 20.238281 35.0625 20.613281 C 34.910156 20.992188 35 21.421875 35.292969 21.707031 C 35.292969 21.707031 36.128906 22.535156 36.003906 23.910156 C 35.953125 24.460938 36.359375 24.945313 36.910156 24.996094 C 37.460938 25.046875 37.945313 24.640625 37.996094 24.089844 C 38.203125 21.800781 36.707031 20.292969 36.707031 20.292969 C 36.519531 20.097656 36.261719 19.992188 35.988281 19.988281 Z M 40.996094 23.988281 C 40.625 23.988281 40.285156 24.191406 40.109375 24.519531 C 39.933594 24.847656 39.957031 25.242188 40.164063 25.546875 C 40.164063 25.546875 40.816406 26.527344 40.417969 27.847656 C 40.253906 28.378906 40.554688 28.9375 41.082031 29.097656 C 41.613281 29.257813 42.171875 28.957031 42.332031 28.429688 C 42.996094 26.226563 41.835938 24.453125 41.835938 24.453125 C 41.652344 24.164063 41.335938 23.988281 40.996094 23.988281 Z M 33.484375 26.4375 C 33.203125 26.445313 32.9375 26.578125 32.757813 26.792969 C 32.578125 27.011719 32.496094 27.292969 32.535156 27.574219 C 32.535156 27.574219 32.691406 28.742188 31.75 29.75 C 31.496094 30.011719 31.402344 30.386719 31.503906 30.734375 C 31.609375 31.082031 31.890625 31.347656 32.246094 31.425781 C 32.601563 31.503906 32.96875 31.386719 33.210938 31.113281 C 34.777344 29.433594 34.519531 27.324219 34.519531 27.324219 C 34.460938 26.800781 34.007813 26.414063 33.484375 26.4375 Z M 37.285156 30.617188 C 36.984375 30.613281 36.695313 30.75 36.503906 30.984375 C 36.3125 31.214844 36.238281 31.523438 36.296875 31.820313 C 36.296875 31.855469 36.292969 31.921875 36.277344 32.011719 C 36.246094 32.214844 36.175781 32.507813 36.078125 32.808594 C 35.886719 33.414063 35.53125 34.066406 35.316406 34.269531 C 34.914063 34.648438 34.890625 35.28125 35.269531 35.683594 C 35.648438 36.085938 36.28125 36.109375 36.683594 35.730469 C 37.386719 35.070313 37.734375 34.199219 37.984375 33.414063 C 38.113281 33.019531 38.199219 32.652344 38.25 32.328125 C 38.277344 32.167969 38.296875 32.019531 38.300781 31.863281 C 38.304688 31.710938 38.339844 31.585938 38.214844 31.265625 C 38.066406 30.878906 37.699219 30.621094 37.285156 30.617188 Z"/></svg>