<svg xmlns="http://www.w3.org/2000/svg"  viewBox="0 0 24 24" width="24px" height="24px"><path d="M11 -0.7H13V24.8H11z" transform="rotate(-45.001 12.02 12.071)"/><path d="M19.3,17.9C19,18,18.8,18,18.5,18h-12C4,18,2,16,2,13.5S4,9,6.5,9H8L7.7,8.5C8,8,8.3,7.6,8.7,7.3L7.3,5.9 C6.9,6.2,6.6,6.6,6.3,7C2.8,7.1,0,10,0,13.5C0,17.1,2.9,20,6.5,20h12c0.8,0,1.6-0.2,2.4-0.5L19.3,17.9z"/><path d="M19,19H6.5c-3,0-5.5-2.5-5.5-5.5l0,0C1,10.5,3.5,8,6.5,8H8L19,19z" opacity=".3"/><path d="M10.5,6.3C11,6.1,11.5,6,12,6c2.4,0,4.5,1.8,4.9,4.2L17,11h1.4c1.9,0,3.5,1.6,3.5,3.5c0,0.9-0.4,1.7-0.9,2.3l1.4,1.4 c0.9-1,1.5-2.3,1.5-3.8c0-3-2.4-5.4-5.3-5.5c-0.9-2.9-3.6-5-6.7-5c-1.1,0-2.1,0.3-3.1,0.7L10.5,6.3z"/><path d="M22.5,18.3c0.9-1,1.5-2.3,1.5-3.8c0-3-2.4-5.4-5.3-5.5 c-0.9-2.9-3.6-5-6.7-5c-1.1,0-2.1,0.3-3.1,0.7L22.5,18.3z" opacity=".3"/></svg>