<svg xmlns="http://www.w3.org/2000/svg"  viewBox="0 0 24 24" width="24px" height="24px"><path d="M6 1H8V5H6zM16 1H18V5H16zM19 14c-2.75 0-5 2.25-5 5s2.25 5 5 5 5-2.25 5-5S21.75 14 19 14zM19.636 21.692c-.032.084-.077.156-.136.217-.06.061-.132.11-.217.144-.084.034-.179.051-.283.051-.105 0-.199-.017-.284-.052-.083-.033-.156-.082-.215-.143-.059-.061-.104-.133-.137-.217-.033-.084-.049-.173-.049-.268 0-.099.017-.19.049-.273.033-.084.079-.156.138-.217.059-.061.132-.11.215-.146.085-.036.179-.054.283-.054s.199.018.283.054c.085.036.157.084.217.145.059.061.105.133.137.217.032.083.049.174.049.273C19.685 21.519 19.669 21.608 19.636 21.692zM19.582 19.986h-1.164L18.253 16h1.495L19.582 19.986z"/><path d="M12,19H5V9h14v3c0.695,0,1.366,0.105,2,0.294V5c0-1.1-0.9-2-2-2H5C3.9,3,3,3.9,3,5v14c0,1.1,0.9,2,2,2h7.294 C12.105,20.366,12,19.695,12,19z M5,5h14v2H5V5z"/><path d="M4 4H20V8H4z" opacity=".3"/></svg>