<svg xmlns="http://www.w3.org/2000/svg"  viewBox="0 0 24 24" width="24px" height="24px"><path d="M19,12V5H5v14h7C12,15.134,15.134,12,19,12z" opacity=".3"/><path d="M18.999,14c-1.382,0-2.634,0.554-3.539,1.46C14.554,16.366,14,17.617,14,19c0,2.766,2.235,5,5,5s5-2.234,5-5.001	C23.999,16.236,21.764,14.001,18.999,14z M21.84,17.581l-1.417,1.417l1.417,1.417l-1.417,1.417l-1.417-1.417l-1.417,1.417	l-1.417-1.417l1.417-1.417l-1.417-1.417l1.417-1.417l1.417,1.417l1.417-1.417L21.84,17.581z"/><path d="M16,7H8C7.448,7,7,6.552,7,6V4l5,1l5-1v2C17,6.552,16.552,7,16,7z"/><path d="M12,19H5V5h7c-0.552,0-1-0.448-1-1s0.448-1,1-1s1,0.448,1,1s-0.448,1-1,1h7v7c0.695,0,1.366,0.105,2,0.294V5	c0-1.105-0.895-2-2-2h-4.184C14.403,1.837,13.304,1,12,1S9.597,1.837,9.184,3H5C3.895,3,3,3.895,3,5v14c0,1.105,0.895,2,2,2h7.294	C12.105,20.366,12,19.695,12,19z"/><line x1="8" x2="16" y1="10" y2="10" stroke="#000" stroke-miterlimit="10" stroke-width="2"/><line x1="8" x2="12" y1="14" y2="14" stroke="#000" stroke-miterlimit="10" stroke-width="2"/></svg>