<svg xmlns="http://www.w3.org/2000/svg"  viewBox="0 0 24 24" width="24px" height="24px"><path d="M 5 3 C 3.9069372 3 3 3.9069372 3 5 L 3 9 C 3 10.093063 3.9069372 11 5 11 L 9 11 C 10.093063 11 11 10.093063 11 9 L 11 5 C 11 3.9069372 10.093063 3 9 3 L 5 3 z M 15 3 C 13.906937 3 13 3.9069372 13 5 L 13 9 C 13 10.093063 13.906937 11 15 11 L 19 11 C 20.093063 11 21 10.093063 21 9 L 21 5 C 21 3.9069372 20.093063 3 19 3 L 15 3 z M 5 5 L 9 5 L 9 9 L 5 9 L 5 5 z M 15 5 L 19 5 L 19 9 L 15 9 L 15 5 z M 5 13 C 3.9069372 13 3 13.906937 3 15 L 3 19 C 3 20.093063 3.9069372 21 5 21 L 9 21 C 10.093063 21 11 20.093063 11 19 L 11 15 C 11 13.906937 10.093063 13 9 13 L 5 13 z M 15 13 C 13.906937 13 13 13.906937 13 15 L 13 19 C 13 20.093063 13.906937 21 15 21 L 19 21 C 20.093063 21 21 20.093063 21 19 L 21 15 C 21 13.906937 20.093063 13 19 13 L 15 13 z M 5 15 L 9 15 L 9 19 L 5 19 L 5 15 z M 15 15 L 19 15 L 19 19 L 15 19 L 15 15 z"/></svg>